<svg width="77" height="67" viewBox="0 0 77 67" fill="none" xmlns="http://www.w3.org/2000/svg">
<rect width="55" height="45" transform="translate(11 11)" fill="#2422E5"/>
<path d="M30.25 40.75V38H35.75V27H33V24.25H35.75V21.5H41.25V38H46.75V40.75H30.25Z" fill="white"/>
<rect x="66.5" y="67" width="45" height="11" transform="rotate(-180 66.5 67)" fill="#2422E5"/>
<rect x="65.5" y="11" width="44" height="11" transform="rotate(-180 65.5 11)" fill="#2422E5"/>
<rect x="76.1836" y="55.8457" width="11" height="44.9427" transform="rotate(-180 76.1836 55.8457)" fill="#2422E5"/>
<rect width="11" height="10.8952" transform="matrix(1 -8.65899e-08 -8.82636e-08 -1 11.1836 66.8955)" fill="#2422E5"/>
<rect width="11" height="10.8952" transform="matrix(1 -8.65899e-08 -8.82636e-08 -1 10.6904 10.8955)" fill="#2422E5"/>
<rect width="11" height="44.9427" transform="matrix(1 -8.65899e-08 -8.82636e-08 -1 0 55.8457)" fill="#2422E5"/>
</svg>
