<svg width="77" height="67" viewBox="0 0 77 67" fill="none" xmlns="http://www.w3.org/2000/svg">
<rect width="55" height="45" transform="translate(11 11)" fill="#2422E5"/>
<path d="M27.5 40.75V35.25H30.25V32.5H33V29.75H38.5V27H41.25V24.25H33V27H27.5V24.25H30.25V21.5H44V24.25H46.75V29.75H44V32.5H41.25V35.25H35.75V38H46.75V40.75H27.5Z" fill="white"/>
<rect x="66.5" y="67" width="45" height="11" transform="rotate(-180 66.5 67)" fill="#2422E5"/>
<rect x="65.5" y="11" width="44" height="11" transform="rotate(-180 65.5 11)" fill="#2422E5"/>
<rect x="76.1836" y="55.8457" width="11" height="44.9427" transform="rotate(-180 76.1836 55.8457)" fill="#2422E5"/>
<rect width="11" height="10.8952" transform="matrix(1 -8.65899e-08 -8.82636e-08 -1 11.1836 66.8955)" fill="#2422E5"/>
<rect width="11" height="10.8952" transform="matrix(1 -8.65899e-08 -8.82636e-08 -1 10.6914 10.8955)" fill="#2422E5"/>
<rect width="11" height="44.9427" transform="matrix(1 -8.65899e-08 -8.82636e-08 -1 0 55.8457)" fill="#2422E5"/>
</svg>
