<svg width="278" height="77" viewBox="0 0 278 77" fill="none" xmlns="http://www.w3.org/2000/svg">
<path d="M2.5 57.4523C2.5 48.8882 9.21469 41.8427 17.7581 41.4598C32.8232 40.7846 54.566 39.8717 70.8928 39.4408C133.29 37.7942 222.78 40.3845 260.316 41.6506C268.813 41.9372 275.5 48.9121 275.5 57.4453C275.5 66.4873 267.963 73.7104 258.92 73.3428C247.509 72.8789 233.114 72.3269 221.911 72.0074C155.085 70.1018 59.4066 72.408 19.0574 73.565C9.97834 73.8253 2.5 66.5433 2.5 57.4523Z" fill="#B8BEBE" stroke="#181818" stroke-width="5"/>
<rect x="106.48" y="2.5" width="65.0388" height="45.462" rx="15.5" fill="#B8BEBE" stroke="#181818" stroke-width="5"/>
<path d="M151.5 26.0728C151.5 32.2037 146.627 36.5 140 36.5C133.373 36.5 128.5 32.2037 128.5 26.0728C128.5 19.6691 133.661 14.5 140 14.5C146.339 14.5 151.5 19.6691 151.5 26.0728Z" fill="#E9F8FF" stroke="#181818" stroke-width="5"/>
</svg>
