<svg width="457" height="107" viewBox="0 0 457 107" fill="none" xmlns="http://www.w3.org/2000/svg">
<path d="M3.35067 79.825C3.35067 67.836 12.8005 57.9938 24.7684 57.5365C49.5438 56.5899 88.0292 55.2044 116.506 54.5705C221.641 52.2304 373.516 56.0591 432.354 57.7603C444.261 58.1045 453.649 67.8582 453.649 79.8168C453.649 92.369 443.231 102.418 430.68 101.983C411.268 101.308 384.878 100.439 364.76 99.9556C252.025 97.244 89.2921 100.685 26.261 102.24C13.6729 102.55 3.35067 92.4383 3.35067 79.825Z" fill="#B8BEBE" stroke="#181818" stroke-width="6.70133"/>
<rect x="174.283" y="3.35067" width="108.434" height="63.2657" rx="17.7107" fill="#B8BEBE" stroke="#181818" stroke-width="6.70133"/>
<path d="M244.634 34.9432C244.634 44.3931 237.588 50.6744 228.5 50.6744C219.413 50.6744 212.366 44.3931 212.366 34.9432C212.366 25.1159 219.789 17.5211 228.5 17.5211C237.212 17.5211 244.634 25.1159 244.634 34.9432Z" fill="#E9F8FF" stroke="#181818" stroke-width="6.70133"/>
</svg>
